<svg width="222" height="30" viewBox="0 0 222 30" fill="none" xmlns="http://www.w3.org/2000/svg">
<path d="M13.8751 29.6075C11.3102 29.6075 9.00185 28.9865 6.94997 27.7446C4.89809 26.5026 3.29169 24.7613 2.13076 22.5204C0.969824 20.2795 0.389358 17.7147 0.389358 14.8258C0.389358 11.991 1.01032 9.45316 2.25225 7.21229C3.52117 4.97142 5.24907 3.21653 7.43594 1.9476C9.64981 0.678679 12.1472 0.044217 14.928 0.044217C17.2769 0.044217 19.4097 0.503189 21.3266 1.42113C23.2705 2.31208 24.8634 3.58101 26.1053 5.22791C27.3743 6.87481 28.2112 8.7917 28.6162 10.9786H24.7689C24.2559 8.65671 23.122 6.83431 21.3671 5.51139C19.6392 4.16147 17.5198 3.48651 15.009 3.48651C12.9031 3.48651 11.0132 3.97248 9.33933 4.94443C7.69243 5.91637 6.41 7.26629 5.49206 8.99419C4.57411 10.7221 4.11514 12.693 4.11514 14.9068C4.11514 17.1477 4.57411 19.1456 5.49206 20.9005C6.437 22.6284 7.74642 23.9918 9.42032 24.9907C11.0942 25.9627 12.9976 26.4487 15.1305 26.4487C17.1284 26.4487 18.9238 25.9897 20.5167 25.0717C22.1366 24.1538 23.392 22.8984 24.2829 21.3055C25.2009 19.6856 25.6599 17.8632 25.6599 15.8383V15.2308H15.4545V14.4209H28.8187V29H25.6599V19.4426C25.0389 22.5744 23.6755 25.0582 21.5696 26.8941C19.4907 28.703 16.9259 29.6075 13.8751 29.6075ZM35.1876 29V0.246705H38.4274V29H35.1876ZM49.8015 29.486C47.8576 29.486 46.3322 29.027 45.2253 28.1091C44.1183 27.1911 43.5649 25.9357 43.5649 24.3428C43.5649 22.7769 44.0778 21.5619 45.1038 20.698C46.1567 19.834 47.4121 19.2401 48.87 18.9161C50.328 18.5651 51.9884 18.3221 53.8513 18.1871C55.4712 18.0791 56.7131 17.8902 57.577 17.6202C58.468 17.3502 58.9134 16.8642 58.9134 16.1623C58.9134 14.5964 58.387 13.3544 57.334 12.4365C56.2811 11.4915 54.9582 11.0191 53.3653 11.0191C51.6914 11.0191 50.3145 11.4915 49.2345 12.4365C48.1546 13.3544 47.4931 14.6369 47.2501 16.2838H44.2128C44.3748 14.6369 44.8608 13.2194 45.6707 12.0315C46.5077 10.8166 47.5876 9.89863 48.9105 9.27767C50.2605 8.65671 51.7589 8.34622 53.4058 8.34622C55.0797 8.34622 56.5511 8.6702 57.82 9.31817C59.1159 9.96613 60.1149 10.9111 60.8168 12.153C61.5458 13.3949 61.9103 14.8393 61.9103 16.4862V26.1247H64.7046V29H58.9539V22.3989C58.36 24.5048 57.253 26.2192 55.6331 27.5421C54.0132 28.838 52.0694 29.486 49.8015 29.486ZM51.1784 26.8941C52.6363 26.8941 53.9457 26.5566 55.1067 25.8817C56.2946 25.1797 57.226 24.2618 57.901 23.1278C58.576 21.9669 58.9134 20.725 58.9134 19.4021L58.9539 17.7822C58.576 18.1061 58.0495 18.3491 57.3745 18.5111C56.7266 18.6731 55.8491 18.7946 54.7422 18.8756C54.6882 18.8756 54.6207 18.8891 54.5397 18.9161C54.4587 18.9161 54.3912 18.9161 54.3372 18.9161C51.7724 19.1321 49.8825 19.5911 48.6676 20.293C47.4526 20.968 46.8452 21.9804 46.8452 23.3303C46.8452 24.4913 47.2366 25.3822 48.0196 26.0032C48.8025 26.5971 49.8555 26.8941 51.1784 26.8941ZM69.4365 29V8.7512H72.6763V14.8663C73.1623 12.8685 74.0397 11.2891 75.3087 10.1281C76.5776 8.94019 78.157 8.34622 80.0469 8.34622C82.2067 8.34622 83.8941 8.95369 85.1091 10.1686C86.351 11.3835 87.1339 13.0979 87.4579 15.3118C87.8899 13.1519 88.7539 11.451 90.0498 10.2091C91.3457 8.96719 92.9926 8.34622 94.9905 8.34622C96.7184 8.34622 98.1358 8.7107 99.2427 9.43966C100.377 10.1686 101.214 11.2081 101.754 12.558C102.294 13.9079 102.564 15.5413 102.564 17.4582V29H99.2832V17.9037C99.2832 15.9058 98.7703 14.3264 97.7443 13.1654C96.7454 11.9775 95.382 11.3835 93.6541 11.3835C92.5201 11.3835 91.4942 11.694 90.5762 12.315C89.6583 12.936 88.9293 13.7864 88.3894 14.8663C87.8764 15.9463 87.6199 17.1342 87.6199 18.4301V29H84.3396V17.9037C84.3396 15.9058 83.8266 14.3264 82.8007 13.1654C81.8018 11.9775 80.4383 11.3835 78.7104 11.3835C77.5765 11.3835 76.5506 11.694 75.6326 12.315C74.7147 12.936 73.9857 13.7864 73.4458 14.8663C72.9328 15.9463 72.6763 17.1342 72.6763 18.4301V29H69.4365ZM118.09 29.405C116.065 29.405 114.216 28.946 112.542 28.0281C110.895 27.1101 109.599 25.8547 108.654 24.2618C107.736 22.6419 107.277 20.8465 107.277 18.8756C107.277 16.9047 107.736 15.1228 108.654 13.5299C109.599 11.91 110.895 10.6411 112.542 9.72314C114.216 8.8052 116.065 8.34622 118.09 8.34622C120.088 8.34622 121.911 8.8052 123.557 9.72314C125.204 10.6411 126.5 11.91 127.445 13.5299C128.417 15.1228 128.903 16.9047 128.903 18.8756C128.903 20.8465 128.417 22.6419 127.445 24.2618C126.5 25.8547 125.204 27.1101 123.557 28.0281C121.911 28.946 120.088 29.405 118.09 29.405ZM118.09 26.3677C119.467 26.3677 120.723 26.0437 121.857 25.3957C123.017 24.7208 123.922 23.8163 124.57 22.6824C125.245 21.5484 125.582 20.2795 125.582 18.8756C125.582 17.4717 125.245 16.2028 124.57 15.0688C123.922 13.9079 123.017 13.0034 121.857 12.3555C120.723 11.6805 119.467 11.343 118.09 11.343C116.686 11.343 115.404 11.6805 114.243 12.3555C113.109 13.0034 112.205 13.9079 111.53 15.0688C110.882 16.2028 110.558 17.4717 110.558 18.8756C110.558 20.2795 110.882 21.5484 111.53 22.6824C112.205 23.8163 113.109 24.7208 114.243 25.3957C115.404 26.0437 116.686 26.3677 118.09 26.3677ZM134.019 29V8.7512H137.259V15.1093C137.745 13.1654 138.622 11.559 139.891 10.2901C141.187 8.99419 142.753 8.34622 144.589 8.34622C145.966 8.34622 147.127 8.64321 148.072 9.23717C149.044 9.80414 149.759 10.6546 150.218 11.7885C150.704 12.8955 150.947 14.2454 150.947 15.8383V17.2152H147.748V16.4052C147.748 14.7853 147.343 13.5434 146.533 12.6795C145.75 11.8155 144.629 11.3835 143.172 11.3835C142.065 11.3835 141.066 11.7075 140.175 12.3555C139.284 12.9765 138.568 13.8269 138.028 14.9068C137.515 15.9868 137.259 17.1882 137.259 18.5111V29H134.019ZM163.492 29.405C161.467 29.405 159.618 28.946 157.944 28.0281C156.297 27.1101 155.001 25.8547 154.056 24.2618C153.138 22.6419 152.679 20.8465 152.679 18.8756C152.679 16.9047 153.138 15.1228 154.056 13.5299C155.001 11.91 156.297 10.6411 157.944 9.72314C159.618 8.8052 161.467 8.34622 163.492 8.34622C165.49 8.34622 167.312 8.8052 168.959 9.72314C170.606 10.6411 171.902 11.91 172.847 13.5299C173.819 15.1228 174.305 16.9047 174.305 18.8756C174.305 20.8465 173.819 22.6419 172.847 24.2618C171.902 25.8547 170.606 27.1101 168.959 28.0281C167.312 28.946 165.49 29.405 163.492 29.405ZM163.492 26.3677C164.869 26.3677 166.124 26.0437 167.258 25.3957C168.419 24.7208 169.324 23.8163 169.971 22.6824C170.646 21.5484 170.984 20.2795 170.984 18.8756C170.984 17.4717 170.646 16.2028 169.971 15.0688C169.324 13.9079 168.419 13.0034 167.258 12.3555C166.124 11.6805 164.869 11.343 163.492 11.343C162.088 11.343 160.806 11.6805 159.645 12.3555C158.511 13.0034 157.606 13.9079 156.931 15.0688C156.283 16.2028 155.959 17.4717 155.959 18.8756C155.959 20.2795 156.283 21.5484 156.931 22.6824C157.606 23.8163 158.511 24.7208 159.645 25.3957C160.806 26.0437 162.088 26.3677 163.492 26.3677ZM187.08 29.405C185.38 29.405 183.895 29.0135 182.626 28.2305C181.384 27.4476 180.425 26.3272 179.75 24.8692C179.102 23.4113 178.778 21.6969 178.778 19.726V8.7512H182.018L182.059 19.2806C182.059 21.4674 182.626 23.1953 183.76 24.4643C184.921 25.7332 186.486 26.3677 188.457 26.3677C189.645 26.3677 190.725 26.0572 191.697 25.4362C192.696 24.8152 193.479 23.9648 194.046 22.8849C194.613 21.8049 194.896 20.6035 194.896 19.2806V8.7512H198.136V29H194.896V22.6419C194.383 24.6938 193.425 26.3407 192.021 27.5826C190.617 28.7975 188.97 29.405 187.08 29.405ZM212.98 29.486C210.172 29.486 207.823 28.838 205.933 27.5421C204.07 26.2462 203.004 24.3968 202.734 21.9939H206.055C206.298 23.5868 207.054 24.7882 208.323 25.5982C209.592 26.3812 211.104 26.7726 212.858 26.7726C213.722 26.7726 214.586 26.6511 215.45 26.4082C216.314 26.1652 217.043 25.7602 217.637 25.1932C218.231 24.6263 218.528 23.9108 218.528 23.0469C218.528 22.2369 218.285 21.5889 217.799 21.103C217.34 20.617 216.706 20.2525 215.896 20.0095C215.086 19.7665 213.979 19.5371 212.575 19.3211C212.413 19.2941 212.251 19.2671 212.089 19.2401C211.927 19.2131 211.751 19.1861 211.562 19.1591C209.754 18.8891 208.269 18.5921 207.108 18.2681C205.974 17.9172 205.069 17.4177 204.394 16.7697C203.746 16.1218 203.422 15.2308 203.422 14.0969C203.422 12.828 203.814 11.7615 204.597 10.8976C205.38 10.0066 206.406 9.34517 207.675 8.91319C208.971 8.48122 210.402 8.26523 211.967 8.26523C214.667 8.26523 216.881 8.91319 218.609 10.2091C220.337 11.478 221.309 13.3139 221.525 15.7168H218.326C218.137 14.1509 217.462 12.9765 216.301 12.1935C215.14 11.4105 213.736 11.0191 212.089 11.0191C210.658 11.0191 209.389 11.343 208.282 11.991C207.202 12.612 206.662 13.5704 206.662 14.8663C206.662 15.5683 206.878 16.1623 207.31 16.6482C207.742 17.1072 208.35 17.4717 209.133 17.7417C209.916 17.9847 210.901 18.2141 212.089 18.4301C212.305 18.4571 212.507 18.4841 212.696 18.5111C212.885 18.5381 213.088 18.5651 213.304 18.5921C213.412 18.6191 213.506 18.6326 213.587 18.6326C213.668 18.6326 213.763 18.6461 213.871 18.6731C215.599 18.9431 217.003 19.2536 218.083 19.6046C219.19 19.9555 220.053 20.482 220.674 21.184C221.322 21.8589 221.646 22.7499 221.646 23.8568C221.646 25.0987 221.228 26.1517 220.391 27.0156C219.554 27.8526 218.474 28.4735 217.151 28.8785C215.855 29.2835 214.465 29.486 212.98 29.486Z" fill="#1E1E24"/>
</svg>
