<svg width="56" height="56" viewBox="0 0 56 56" fill="none" xmlns="http://www.w3.org/2000/svg">
<g filter="url(#filter0_d_6975_13235)">
<path fill-rule="evenodd" clip-rule="evenodd" d="M4 23.6168C4 14.1828 4 9.46586 6.24804 6.06835C7.25189 4.55119 8.55119 3.25189 10.0683 2.24804C13.4659 0 18.1828 0 27.6168 0C37.0508 0 41.7678 0 45.1653 2.24804C46.6824 3.25189 47.9817 4.55119 48.9856 6.06835C51.2336 9.46586 51.2336 14.1828 51.2336 23.6168C51.2336 33.0508 51.2336 37.7678 48.9856 41.1653C47.9817 42.6824 46.6824 43.9817 45.1653 44.9856C41.7678 47.2336 37.0508 47.2336 27.6168 47.2336C18.1828 47.2336 13.4659 47.2336 10.0683 44.9856C8.55119 43.9817 7.25189 42.6824 6.24804 41.1653C4 37.7678 4 33.0508 4 23.6168ZM39.8429 23.6172C39.8429 30.3698 34.3688 35.8439 27.6162 35.8439C20.8635 35.8439 15.3894 30.3698 15.3894 23.6172C15.3894 16.8646 20.8635 11.3905 27.6162 11.3905C34.3688 11.3905 39.8429 16.8646 39.8429 23.6172ZM27.6162 31.7073C32.0842 31.7073 35.7062 28.0852 35.7062 23.6172C35.7062 19.1492 32.0842 15.5271 27.6162 15.5271C23.1481 15.5271 19.5261 19.1492 19.5261 23.6172C19.5261 28.0852 23.1481 31.7073 27.6162 31.7073ZM40.3262 13.6492C41.9128 13.6492 43.1991 12.3629 43.1991 10.7763C43.1991 9.1896 41.9128 7.90335 40.3262 7.90335C38.7395 7.90335 37.4532 9.1896 37.4532 10.7763C37.4532 12.3629 38.7395 13.6492 40.3262 13.6492Z" fill="white"/>
</g>
<defs>
<filter id="filter0_d_6975_13235" x="0" y="0" width="55.2334" height="55.2336" filterUnits="userSpaceOnUse" color-interpolation-filters="sRGB">
<feFlood flood-opacity="0" result="BackgroundImageFix"/>
<feColorMatrix in="SourceAlpha" type="matrix" values="0 0 0 0 0 0 0 0 0 0 0 0 0 0 0 0 0 0 127 0" result="hardAlpha"/>
<feOffset dy="4"/>
<feGaussianBlur stdDeviation="2"/>
<feComposite in2="hardAlpha" operator="out"/>
<feColorMatrix type="matrix" values="0 0 0 0 0 0 0 0 0 0 0 0 0 0 0 0 0 0 0.1 0"/>
<feBlend mode="normal" in2="BackgroundImageFix" result="effect1_dropShadow_6975_13235"/>
<feBlend mode="normal" in="SourceGraphic" in2="effect1_dropShadow_6975_13235" result="shape"/>
</filter>
</defs>
</svg>
