<svg width="98" height="17" viewBox="0 0 98 17" fill="none" xmlns="http://www.w3.org/2000/svg">
<path d="M24.1133 16.6418V1.55322H26.1547V8.03242H34.054V1.55322H36.0954V16.6418H34.054V9.6966H26.1547V16.6418H24.1133Z" fill="#1E1E24"/>
<path d="M51.7007 16.6418L50.2806 13.025H43.0469L41.6268 16.6418H39.6076L45.5321 1.55322H47.8842L53.8308 16.6418H51.7007ZM46.22 4.85939L43.6682 11.383H49.6593L47.1075 4.85939L46.6638 3.52805L46.22 4.85939Z" fill="#1E1E24"/>
<path d="M57.3292 16.6418V1.55322H59.3706V16.6418H57.3292Z" fill="#1E1E24"/>
<path d="M64.1645 16.6418V1.55322H69.6008C72.7738 1.55322 74.793 3.19521 74.793 5.81352C74.793 7.54426 73.9498 8.76466 72.5298 9.40814C73.5061 9.85192 74.0164 10.6729 74.3936 12.1596L75.5253 16.6418H73.3729L72.4188 12.559C71.975 10.6729 71.2206 10.3179 69.4011 10.3179H66.2059V16.6418H64.1645ZM69.5564 3.2174H66.2059V8.65371H69.512C71.5091 8.65371 72.6851 7.58864 72.6851 5.92446C72.6851 4.26028 71.5091 3.2174 69.5564 3.2174Z" fill="#1E1E24"/>
<path d="M94.7913 16.6418L91.0191 11.4052L90.3978 10.451L89.7765 11.4052L86.0266 16.6418H83.8299L89.3327 8.85342L84.2293 1.55322H86.6035L89.9318 6.12416L90.6197 7.21143L91.3076 6.12416L94.5694 1.55322H96.7661L91.6848 8.80904L97.1655 16.6418H94.7913Z" fill="#1E1E24"/>
<path fill-rule="evenodd" clip-rule="evenodd" d="M1.79769 12.7014L14.8505 3.94107L14.0776 2.78955L1.02486 11.5498L1.79769 12.7014Z" fill="#1E1E24"/>
<path fill-rule="evenodd" clip-rule="evenodd" d="M1.38717 13.6855C1.38717 12.9625 1.97326 12.3764 2.69622 12.3764C3.41919 12.3764 4.00528 12.9625 4.00528 13.6855C4.00528 14.4085 3.41919 14.9945 2.69622 14.9945C1.97326 14.9945 1.38717 14.4085 1.38717 13.6855ZM0.000359338 13.6855C0.000359403 12.1966 1.20734 10.9896 2.69622 10.9896C4.18511 10.9896 5.39209 12.1966 5.39209 13.6855C5.39209 15.1744 4.18511 16.3813 2.69622 16.3813C1.20734 16.3813 0.000359273 15.1744 0.000359338 13.6855Z" fill="#1E1E24"/>
<path fill-rule="evenodd" clip-rule="evenodd" d="M1.79769 3.94074L14.8505 12.701L14.0776 13.8525L1.02486 5.09225L1.79769 3.94074Z" fill="#1E1E24"/>
<path fill-rule="evenodd" clip-rule="evenodd" d="M1.38717 2.95661C1.38717 3.67958 1.97326 4.26566 2.69622 4.26566C3.41919 4.26566 4.00527 3.67958 4.00528 2.95661C4.00528 2.23364 3.41919 1.64756 2.69622 1.64756C1.97326 1.64756 1.38717 2.23364 1.38717 2.95661ZM0.000359102 2.95661C0.000359037 4.44549 1.20734 5.65247 2.69622 5.65247C4.18511 5.65247 5.39209 4.44549 5.39209 2.95661C5.39209 1.46772 4.18511 0.260742 2.69622 0.260742C1.20734 0.260742 0.000359167 1.46772 0.000359102 2.95661Z" fill="#1E1E24"/>
</svg>
