<svg width="176" height="25" viewBox="0 0 176 25" fill="none" xmlns="http://www.w3.org/2000/svg">
<path d="M0.775086 24V23.6477L1.51494 23.3658C2.00818 23.1779 2.31351 22.9548 2.43095 22.6964C2.57188 22.4146 2.64234 22.0388 2.64234 21.569V3.17837C2.64234 2.70862 2.57188 2.33283 2.43095 2.05098C2.29003 1.76913 1.98469 1.54599 1.51494 1.38158L0.775086 1.09973V0.747421H9.75904V1.09973L9.12488 1.38158C8.67861 1.54599 8.37328 1.78087 8.20886 2.08621C8.04445 2.36806 7.96225 2.74386 7.96225 3.2136V23.2954H13.3878C14.2569 23.2954 14.891 23.084 15.2903 22.6612C15.7131 22.2384 16.1124 21.6278 16.4882 20.8292L17.8622 17.8698H18.2145L17.8974 24H0.775086ZM29.7965 24.6342C28.3638 24.6342 26.978 24.3758 25.6392 23.8591C24.3239 23.3424 23.1378 22.579 22.0809 21.569C21.0474 20.5356 20.2254 19.2555 19.6147 17.7289C19.004 16.2022 18.6987 14.4171 18.6987 12.3737C18.6987 10.3538 19.004 8.58049 19.6147 7.0538C20.2254 5.52712 21.0592 4.2588 22.1161 3.24883C23.173 2.21539 24.3591 1.4403 25.6744 0.923577C27.0132 0.383366 28.3872 0.11326 29.7965 0.11326C31.2292 0.11326 32.6032 0.371622 33.9185 0.888346C35.2573 1.38158 36.4434 2.14492 37.4769 3.17837C38.5338 4.18833 39.3676 5.4684 39.9783 7.01857C40.589 8.54526 40.8943 10.3303 40.8943 12.3737C40.8943 14.3701 40.589 16.1434 39.9783 17.6936C39.3676 19.2203 38.5338 20.5004 37.4769 21.5338C36.4434 22.5438 35.2573 23.3189 33.9185 23.8591C32.6032 24.3758 31.2292 24.6342 29.7965 24.6342ZM29.7965 23.8943C31.0883 23.8943 32.1335 23.5537 32.9321 22.8726C33.7306 22.168 34.3061 20.9819 34.6584 19.3143C35.0342 17.6232 35.2221 15.3096 35.2221 12.3737C35.2221 9.41429 35.0342 7.10078 34.6584 5.43317C34.3061 3.74207 33.7306 2.55596 32.9321 1.87482C32.1335 1.1702 31.0883 0.817883 29.7965 0.817883C28.5282 0.817883 27.4947 1.1702 26.6962 1.87482C25.8976 2.55596 25.3104 3.74207 24.9346 5.43317C24.5823 7.10078 24.4061 9.41429 24.4061 12.3737C24.4061 15.3096 24.5823 17.6232 24.9346 19.3143C25.3104 20.9819 25.8976 22.168 26.6962 22.8726C27.4947 23.5537 28.5282 23.8943 29.7965 23.8943ZM53.3986 24.6342C51.9659 24.6342 50.5801 24.3758 49.2414 23.8591C47.9261 23.3424 46.7399 22.579 45.683 21.569C44.6496 20.5356 43.8275 19.2555 43.2168 17.7289C42.6061 16.2022 42.3008 14.4171 42.3008 12.3737C42.3008 10.3538 42.6061 8.58049 43.2168 7.0538C43.8275 5.52712 44.6613 4.2588 45.7182 3.24883C46.7752 2.21539 47.9613 1.4403 49.2766 0.923577C50.6154 0.383366 51.9894 0.11326 53.3986 0.11326C54.8314 0.11326 56.2054 0.371622 57.5207 0.888346C58.8595 1.38158 60.0456 2.14492 61.079 3.17837C62.136 4.18833 62.9698 5.4684 63.5804 7.01857C64.1911 8.54526 64.4965 10.3303 64.4965 12.3737C64.4965 14.3701 64.1911 16.1434 63.5804 17.6936C62.9698 19.2203 62.136 20.5004 61.079 21.5338C60.0456 22.5438 58.8595 23.3189 57.5207 23.8591C56.2054 24.3758 54.8314 24.6342 53.3986 24.6342ZM53.3986 23.8943C54.6904 23.8943 55.7356 23.5537 56.5342 22.8726C57.3328 22.168 57.9082 20.9819 58.2605 19.3143C58.6363 17.6232 58.8242 15.3096 58.8242 12.3737C58.8242 9.41429 58.6363 7.10078 58.2605 5.43317C57.9082 3.74207 57.3328 2.55596 56.5342 1.87482C55.7356 1.1702 54.6904 0.817883 53.3986 0.817883C52.1303 0.817883 51.0969 1.1702 50.2983 1.87482C49.4997 2.55596 48.9125 3.74207 48.5367 5.43317C48.1844 7.10078 48.0083 9.41429 48.0083 12.3737C48.0083 15.3096 48.1844 17.6232 48.5367 19.3143C48.9125 20.9819 49.4997 22.168 50.2983 22.8726C51.0969 23.5537 52.1303 23.8943 53.3986 23.8943ZM64.838 24V23.6477L65.5779 23.3658C66.0476 23.2014 66.353 22.9783 66.4939 22.6964C66.6348 22.4146 66.7053 22.0505 66.7053 21.6043V3.17837C66.7053 2.70862 66.6348 2.33283 66.4939 2.05098C66.353 1.76913 66.0476 1.54599 65.5779 1.38158L64.838 1.09973V0.747421H73.6106V1.09973L72.8355 1.41681C72.4362 1.55774 72.1661 1.76913 72.0252 2.05098C71.8843 2.33283 71.8138 2.72037 71.8138 3.2136V21.6395C71.8138 22.1093 71.8843 22.4733 72.0252 22.7317C72.1896 22.99 72.4949 23.2014 72.9412 23.3658L73.6106 23.6477V24H64.838ZM77.8383 24V23.6477L78.2963 23.5068C78.7661 23.3658 79.0127 23.131 79.0362 22.8021C79.0597 22.4733 78.9188 22.0975 78.6134 21.6747L71.849 12.0566L80.7625 2.96699C81.0913 2.63816 81.2675 2.32108 81.291 2.01574C81.338 1.71041 81.1148 1.47553 80.6216 1.31112L80.0227 1.09973V0.747421H85.1664V1.09973L84.2504 1.38158C83.7337 1.54599 83.3227 1.74564 83.0173 1.98051C82.712 2.21539 82.3597 2.53247 81.9604 2.93175L75.654 9.37906L83.9333 21.4634C84.2856 21.9801 84.6145 22.4029 84.9198 22.7317C85.2486 23.0605 85.7066 23.3189 86.2938 23.5068L86.7871 23.6477V24H77.8383ZM87.3392 24V23.6477L87.9733 23.4011C88.4431 23.2132 88.7602 22.9783 88.9246 22.6964C89.1125 22.4146 89.2064 22.0388 89.2064 21.569V3.17837C89.2064 2.68514 89.1125 2.29759 88.9246 2.01574C88.7602 1.73389 88.4431 1.51076 87.9733 1.34635L87.3392 1.09973V0.747421H97.4505C100.316 0.747421 102.383 1.27589 103.651 2.33283C104.92 3.36627 105.554 4.68157 105.554 6.27872C105.554 7.47658 105.084 8.56874 104.144 9.55522C103.228 10.5182 101.643 11.1993 99.3883 11.5986C101.972 11.8805 103.863 12.5616 105.06 13.642C106.258 14.699 106.857 15.9908 106.857 17.5175C106.857 18.2691 106.693 19.0324 106.364 19.8075C106.035 20.5591 105.472 21.252 104.673 21.8861C103.898 22.5203 102.829 23.037 101.467 23.4363C100.105 23.8121 98.3783 24 96.2879 24H87.3392ZM94.4207 11.5634H95.9356C97.5093 11.5634 98.6367 11.1993 99.3178 10.4712C100.022 9.74312 100.375 8.47479 100.375 6.66626C100.375 4.78726 100.058 3.44848 99.4235 2.64991C98.7893 1.85133 97.7559 1.45204 96.3231 1.45204H94.4207V11.5634ZM94.4207 23.2954H96.1822C97.9438 23.2954 99.2473 22.8256 100.093 21.8861C100.962 20.9466 101.396 19.4787 101.396 17.4822C101.396 15.6032 100.985 14.2645 100.163 13.4659C99.3413 12.6673 97.9907 12.268 96.1118 12.268H94.4207V23.2954ZM118.735 24.6342C117.302 24.6342 115.916 24.3758 114.577 23.8591C113.262 23.3424 112.076 22.579 111.019 21.569C109.985 20.5356 109.163 19.2555 108.553 17.7289C107.942 16.2022 107.637 14.4171 107.637 12.3737C107.637 10.3538 107.942 8.58049 108.553 7.0538C109.163 5.52712 109.997 4.2588 111.054 3.24883C112.111 2.21539 113.297 1.4403 114.613 0.923577C115.951 0.383366 117.325 0.11326 118.735 0.11326C120.167 0.11326 121.541 0.371622 122.857 0.888346C124.195 1.38158 125.382 2.14492 126.415 3.17837C127.472 4.18833 128.306 5.4684 128.916 7.01857C129.527 8.54526 129.832 10.3303 129.832 12.3737C129.832 14.3701 129.527 16.1434 128.916 17.6936C128.306 19.2203 127.472 20.5004 126.415 21.5338C125.382 22.5438 124.195 23.3189 122.857 23.8591C121.541 24.3758 120.167 24.6342 118.735 24.6342ZM118.735 23.8943C120.026 23.8943 121.072 23.5537 121.87 22.8726C122.669 22.168 123.244 20.9819 123.596 19.3143C123.972 17.6232 124.16 15.3096 124.16 12.3737C124.16 9.41429 123.972 7.10078 123.596 5.43317C123.244 3.74207 122.669 2.55596 121.87 1.87482C121.072 1.1702 120.026 0.817883 118.735 0.817883C117.466 0.817883 116.433 1.1702 115.634 1.87482C114.836 2.55596 114.248 3.74207 113.873 5.43317C113.52 7.10078 113.344 9.41429 113.344 12.3737C113.344 15.3096 113.52 17.6232 113.873 19.3143C114.248 20.9819 114.836 22.168 115.634 22.8726C116.433 23.5537 117.466 23.8943 118.735 23.8943ZM142.337 24.6342C140.904 24.6342 139.518 24.3758 138.179 23.8591C136.864 23.3424 135.678 22.579 134.621 21.569C133.588 20.5356 132.766 19.2555 132.155 17.7289C131.544 16.2022 131.239 14.4171 131.239 12.3737C131.239 10.3538 131.544 8.58049 132.155 7.0538C132.766 5.52712 133.599 4.2588 134.656 3.24883C135.713 2.21539 136.899 1.4403 138.215 0.923577C139.553 0.383366 140.927 0.11326 142.337 0.11326C143.769 0.11326 145.143 0.371622 146.459 0.888346C147.798 1.38158 148.984 2.14492 150.017 3.17837C151.074 4.18833 151.908 5.4684 152.519 7.01857C153.129 8.54526 153.435 10.3303 153.435 12.3737C153.435 14.3701 153.129 16.1434 152.519 17.6936C151.908 19.2203 151.074 20.5004 150.017 21.5338C148.984 22.5438 147.798 23.3189 146.459 23.8591C145.143 24.3758 143.769 24.6342 142.337 24.6342ZM142.337 23.8943C143.629 23.8943 144.674 23.5537 145.472 22.8726C146.271 22.168 146.846 20.9819 147.199 19.3143C147.574 17.6232 147.762 15.3096 147.762 12.3737C147.762 9.41429 147.574 7.10078 147.199 5.43317C146.846 3.74207 146.271 2.55596 145.472 1.87482C144.674 1.1702 143.629 0.817883 142.337 0.817883C141.068 0.817883 140.035 1.1702 139.236 1.87482C138.438 2.55596 137.851 3.74207 137.475 5.43317C137.123 7.10078 136.946 9.41429 136.946 12.3737C136.946 15.3096 137.123 17.6232 137.475 19.3143C137.851 20.9819 138.438 22.168 139.236 22.8726C140.035 23.5537 141.068 23.8943 142.337 23.8943ZM153.776 24V23.6477L154.516 23.3658C154.986 23.2014 155.291 22.9783 155.432 22.6964C155.573 22.4146 155.643 22.0505 155.643 21.6043V3.17837C155.643 2.70862 155.573 2.33283 155.432 2.05098C155.291 1.76913 154.986 1.54599 154.516 1.38158L153.776 1.09973V0.747421H162.549V1.09973L161.774 1.41681C161.374 1.55774 161.104 1.76913 160.963 2.05098C160.822 2.33283 160.752 2.72037 160.752 3.2136V21.6395C160.752 22.1093 160.822 22.4733 160.963 22.7317C161.128 22.99 161.433 23.2014 161.879 23.3658L162.549 23.6477V24H153.776ZM166.776 24V23.6477L167.234 23.5068C167.704 23.3658 167.951 23.131 167.974 22.8021C167.998 22.4733 167.857 22.0975 167.551 21.6747L160.787 12.0566L169.701 2.96699C170.029 2.63816 170.206 2.32108 170.229 2.01574C170.276 1.71041 170.053 1.47553 169.56 1.31112L168.961 1.09973V0.747421H174.104V1.09973L173.188 1.38158C172.672 1.54599 172.261 1.74564 171.955 1.98051C171.65 2.21539 171.298 2.53247 170.898 2.93175L164.592 9.37906L172.871 21.4634C173.224 21.9801 173.553 22.4029 173.858 22.7317C174.187 23.0605 174.645 23.3189 175.232 23.5068L175.725 23.6477V24H166.776Z" fill="#1E1E24"/>
</svg>
