<svg width="149" height="21" viewBox="0 0 149 21" fill="none" xmlns="http://www.w3.org/2000/svg">
<path d="M9.20685 0.665232C9.52196 -0.221743 10.7763 -0.221744 11.0914 0.66523L13.2062 6.61775C13.3479 7.01655 13.7253 7.28298 14.1485 7.28298H19.2964C20.256 7.28298 20.6647 8.50341 19.8986 9.08131L15.6077 12.3182C15.2819 12.564 15.1381 12.9832 15.2446 13.3773L16.8813 19.4363C17.1304 20.3586 16.0681 21.0717 15.3089 20.4918L10.7563 17.0143C10.3979 16.7405 9.90048 16.7406 9.54209 17.0145L4.99215 20.4916C4.23311 21.0717 3.17065 20.3589 3.41946 19.4366L5.05403 13.3771C5.16031 12.9831 5.01654 12.5641 4.69077 12.3183L0.399716 9.0813C-0.366358 8.50341 0.0423419 7.28298 1.00194 7.28298H6.14981C6.57303 7.28298 6.95043 7.01655 7.09211 6.61775L9.20685 0.665232Z" fill="#F5C74D"/>
<path d="M41.2068 0.665232C41.522 -0.221743 42.7763 -0.221744 43.0914 0.66523L45.2062 6.61775C45.3479 7.01655 45.7253 7.28298 46.1485 7.28298H51.2964C52.256 7.28298 52.6647 8.50341 51.8986 9.08131L47.6077 12.3182C47.2819 12.564 47.1381 12.9832 47.2446 13.3773L48.8813 19.4363C49.1304 20.3586 48.0681 21.0717 47.3089 20.4918L42.7563 17.0143C42.3979 16.7405 41.9005 16.7406 41.5421 17.0145L36.9921 20.4916C36.2331 21.0717 35.1707 20.3589 35.4195 19.4366L37.054 13.3771C37.1603 12.9831 37.0165 12.5641 36.6908 12.3183L32.3997 9.0813C31.6336 8.50341 32.0423 7.28298 33.0019 7.28298H38.1498C38.573 7.28298 38.9504 7.01655 39.0921 6.61775L41.2068 0.665232Z" fill="#F5C74D"/>
<path d="M73.2068 0.665232C73.522 -0.221743 74.7763 -0.221744 75.0914 0.66523L77.2062 6.61775C77.3479 7.01655 77.7253 7.28298 78.1485 7.28298H83.2964C84.256 7.28298 84.6646 8.50341 83.8986 9.08131L79.6077 12.3182C79.2819 12.564 79.1381 12.9832 79.2446 13.3773L80.8813 19.4363C81.1304 20.3586 80.0681 21.0717 79.3089 20.4918L74.7563 17.0143C74.3979 16.7405 73.9005 16.7406 73.5421 17.0145L68.9921 20.4916C68.2331 21.0717 67.1707 20.3589 67.4195 19.4366L69.054 13.3771C69.1603 12.9831 69.0165 12.5641 68.6908 12.3183L64.3997 9.0813C63.6336 8.50341 64.0423 7.28298 65.0019 7.28298H70.1498C70.573 7.28298 70.9504 7.01655 71.0921 6.61775L73.2068 0.665232Z" fill="#F5C74D"/>
<path d="M105.207 0.665232C105.522 -0.221743 106.776 -0.221744 107.091 0.66523L109.206 6.61775C109.348 7.01655 109.725 7.28298 110.148 7.28298H115.296C116.256 7.28298 116.665 8.50341 115.899 9.08131L111.608 12.3182C111.282 12.564 111.138 12.9832 111.245 13.3773L112.881 19.4363C113.13 20.3586 112.068 21.0717 111.309 20.4918L106.756 17.0143C106.398 16.7405 105.9 16.7406 105.542 17.0145L100.992 20.4916C100.233 21.0717 99.1707 20.3589 99.4195 19.4366L101.054 13.3771C101.16 12.9831 101.017 12.5641 100.691 12.3183L96.3997 9.0813C95.6336 8.50341 96.0423 7.28298 97.0019 7.28298H102.15C102.573 7.28298 102.95 7.01655 103.092 6.61775L105.207 0.665232Z" fill="#F5C74D"/>
<path d="M137.207 0.665232C137.522 -0.221743 138.776 -0.221744 139.091 0.66523L141.206 6.61775C141.348 7.01655 141.725 7.28298 142.148 7.28298H147.296C148.256 7.28298 148.665 8.50341 147.899 9.08131L143.608 12.3182C143.282 12.564 143.138 12.9832 143.245 13.3773L144.881 19.4363C145.13 20.3586 144.068 21.0717 143.309 20.4918L138.756 17.0143C138.398 16.7405 137.9 16.7406 137.542 17.0145L132.992 20.4916C132.233 21.0717 131.171 20.3589 131.419 19.4366L133.054 13.3771C133.16 12.9831 133.017 12.5641 132.691 12.3183L128.4 9.0813C127.634 8.50341 128.042 7.28298 129.002 7.28298H134.15C134.573 7.28298 134.95 7.01655 135.092 6.61775L137.207 0.665232Z" fill="#F5C74D"/>
</svg>
