<svg width="81" height="42" viewBox="0 0 81 42" fill="none" xmlns="http://www.w3.org/2000/svg">
<path d="M0.191307 4.52332C0.191307 2.1407 1.60953 0.949394 4.44597 0.949394C7.32024 0.949394 8.75737 2.19743 8.75737 4.6935V12.6355H6.77186V4.75023C6.77186 3.65347 6.62058 2.85927 6.31803 2.36762C6.01547 1.83815 5.41037 1.57341 4.5027 1.57341C3.59504 1.57341 2.97102 1.83815 2.63065 2.36762C2.3281 2.85927 2.17682 3.65347 2.17682 4.75023V11.5577C2.17682 12.9948 2.36591 14.0538 2.74411 14.7345C3.27358 15.7556 3.9165 16.6822 4.67289 17.5142C5.46709 18.3463 6.0722 19.0459 6.48821 19.6132C6.90423 20.1427 7.28242 20.7667 7.62279 21.4853C8.37918 23.0737 8.75737 24.9457 8.75737 27.1014V37.7097C8.75737 40.0923 7.32024 41.2836 4.44597 41.2836C1.60953 41.2836 0.191307 40.0356 0.191307 37.5395V29.6542H2.17682V37.4828C2.17682 38.5796 2.3281 39.3927 2.63065 39.9222C2.9332 40.4138 3.53831 40.6596 4.44597 40.6596C5.35364 40.6596 5.95875 40.4138 6.2613 39.9222C6.60167 39.3927 6.77186 38.5796 6.77186 37.4828V27.5552C6.77186 25.3996 6.58276 23.8868 6.20457 23.0169C5.6751 21.7311 5.01326 20.6532 4.21906 19.7834C3.46267 18.9135 2.87648 18.2328 2.46046 17.7411C2.04445 17.2495 1.66626 16.72 1.32589 16.1527C0.5695 14.8291 0.191307 13.3919 0.191307 11.8413V4.52332ZM10.1619 1.28977H19.1818V2.1407H15.6646V41H13.679V2.1407H10.1619V1.28977ZM24.0928 41V23.9813L20.6891 1.28977H22.6746L25.6812 21.6554L28.858 1.28977H29.7089L26.0783 23.9246V41H24.0928ZM30.9366 1.28977H32.9221V40.1491H38.4248V41H30.9366V1.28977ZM48.4827 1.28977V2.1407H41.6752V19.3863H47.3481V20.2372H41.6752V40.1491H48.4827V41H39.6897V1.28977H48.4827ZM49.9386 1.28977H51.9241V40.1491H57.4268V41H49.9386V1.28977ZM60.6772 1.28977V41H58.6917V1.28977H60.6772ZM62.1831 4.52332C62.1831 2.1407 63.6014 0.949394 66.4378 0.949394C69.3121 0.949394 70.7492 2.19743 70.7492 4.6935V12.6355H68.7637V4.75023C68.7637 3.65347 68.6124 2.85927 68.3099 2.36762C68.0073 1.83815 67.4022 1.57341 66.4945 1.57341C65.5869 1.57341 64.9629 1.83815 64.6225 2.36762C64.3199 2.85927 64.1687 3.65347 64.1687 4.75023V11.5577C64.1687 12.9948 64.3578 14.0538 64.7359 14.7345C65.2654 15.7556 65.9083 16.6822 66.6647 17.5142C67.4589 18.3463 68.064 19.0459 68.4801 19.6132C68.8961 20.1427 69.2743 20.7667 69.6146 21.4853C70.371 23.0737 70.7492 24.9457 70.7492 27.1014V37.7097C70.7492 40.0923 69.3121 41.2836 66.4378 41.2836C63.6014 41.2836 62.1831 40.0356 62.1831 37.5395V29.6542H64.1687V37.4828C64.1687 38.5796 64.3199 39.3927 64.6225 39.9222C64.925 40.4138 65.5301 40.6596 66.4378 40.6596C67.3455 40.6596 67.9506 40.4138 68.2531 39.9222C68.5935 39.3927 68.7637 38.5796 68.7637 37.4828V27.5552C68.7637 25.3996 68.5746 23.8868 68.1964 23.0169C67.6669 21.7311 67.0051 20.6532 66.2109 19.7834C65.4545 18.9135 64.8683 18.2328 64.4523 17.7411C64.0363 17.2495 63.6581 16.72 63.3177 16.1527C62.5613 14.8291 62.1831 13.3919 62.1831 11.8413V4.52332ZM80.7198 1.28977V41H78.7342V20.7478H74.1392V41H72.1537V1.28977H74.1392V19.8968H78.7342V1.28977H80.7198Z" fill="#1E1E24"/>
</svg>
