<svg width="90" height="90" viewBox="0 0 90 90" fill="none" xmlns="http://www.w3.org/2000/svg">
<g clip-path="url(#clip0_7309_10040)">
<path d="M77.8919 57.3143L77.6408 57.4938V57.8024V66.9543C77.6408 67.7139 76.7789 68.0778 76.2618 67.6638L76.2557 67.659L68.4694 61.588L68.2617 61.426L68.0018 61.4694C66.3936 61.7376 64.7984 61.9142 63.1209 61.9142C49.8096 61.9142 39.185 52.2475 39.185 40.4954C39.185 28.7421 49.8111 19.0766 63.0303 19.0766C76.3416 19.0766 86.9663 28.7434 86.9663 40.4954C86.9663 47.2549 83.4588 53.3347 77.8919 57.3143Z" fill="white" stroke="#8D8D95" stroke-width="1.2"/>
<path d="M14.5783 59.9334V59.6212L14.3226 59.442C8.12594 55.1008 4.16641 48.2982 4.16641 40.7236C4.16641 27.6143 16.0565 16.8582 30.909 16.8582C45.6697 16.8582 57.5611 27.6131 57.5611 40.7236C57.5611 53.8329 45.6711 64.5889 30.8185 64.5889C28.9565 64.5889 27.1852 64.4116 25.4134 64.0569L25.1455 64.0033L24.9291 64.1702L16.2375 70.8755L16.2284 70.8825L16.2197 70.8898C15.5616 71.4386 14.5783 70.982 14.5783 70.082V59.9334Z" fill="white" stroke="#1E1E24" stroke-width="1.2"/>
<path d="M5.78809 18.6065L8.50571 19.8274" stroke="#1E1E24" stroke-width="1.2" stroke-linecap="round"/>
<path d="M11.6309 12.941L12.6083 15.7554" stroke="#1E1E24" stroke-width="1.2" stroke-linecap="round"/>
<path d="M19.2949 12.4947L18.1324 15.2378" stroke="#1E1E24" stroke-width="1.2" stroke-linecap="round"/>
<path d="M30.8644 53.1429C36.9556 53.1429 41.8935 48.205 41.8935 42.1138C41.8935 36.0226 36.9556 31.0847 30.8644 31.0847C24.7732 31.0847 19.8353 36.0226 19.8353 42.1138C19.8353 48.205 24.7732 53.1429 30.8644 53.1429Z" stroke="#1E1E24" stroke-width="1.2"/>
<path d="M26.2129 42.9348L28.6755 45.671L35.5162 38.5568" stroke="#1E1E24" stroke-width="1.2" stroke-linecap="round" stroke-linejoin="round"/>
</g>
<defs>
<clipPath id="clip0_7309_10040">
<rect width="90" height="90" fill="white"/>
</clipPath>
</defs>
</svg>
