<svg width="60" height="67" viewBox="0 0 60 67" fill="none" xmlns="http://www.w3.org/2000/svg">
<g filter="url(#filter0_d_6975_13234)">
<path d="M55.6819 14.7333C52.3209 14.7333 49.2131 13.6168 46.7268 11.7406C43.8723 9.58818 41.8119 6.42281 41.0867 2.78552C40.9026 1.88771 40.8105 0.955365 40.799 0H31.1878V26.2553L31.1763 40.6318C31.1763 44.4763 28.667 47.7337 25.2024 48.8848C24.1894 49.2186 23.1075 49.3797 21.9794 49.3106C20.5291 49.2301 19.1824 48.7927 17.9968 48.0905C15.4876 46.5942 13.7955 43.8777 13.7495 40.7584C13.6804 35.901 17.6055 31.9299 22.4629 31.9299C23.4182 31.9299 24.3391 32.0911 25.2024 32.3673V25.1963V22.6295C24.293 22.4914 23.3722 22.4223 22.4283 22.4223C17.1105 22.4223 12.138 24.6323 8.58131 28.6149C5.89938 31.6191 4.28792 35.4636 4.03469 39.4923C3.7124 44.7755 5.64615 49.8056 9.39855 53.5119C9.95105 54.0529 10.5266 54.5594 11.1366 55.0313C14.3595 57.5061 18.2846 58.8528 22.4283 58.8528C23.3607 58.8528 24.293 58.7837 25.2024 58.6456C29.0699 58.0701 32.6381 56.2975 35.4581 53.5119C38.9228 50.0933 40.8335 45.5467 40.8565 40.7124L40.8105 19.2339C42.468 20.5116 44.2636 21.559 46.2089 22.3763C49.2246 23.6539 52.4245 24.287 55.705 24.287V17.3117V14.7218C55.7165 14.7333 55.6819 14.7333 55.6819 14.7333Z" fill="white"/>
</g>
<defs>
<filter id="filter0_d_6975_13234" x="0" y="0" width="59.7075" height="66.8528" filterUnits="userSpaceOnUse" color-interpolation-filters="sRGB">
<feFlood flood-opacity="0" result="BackgroundImageFix"/>
<feColorMatrix in="SourceAlpha" type="matrix" values="0 0 0 0 0 0 0 0 0 0 0 0 0 0 0 0 0 0 127 0" result="hardAlpha"/>
<feOffset dy="4"/>
<feGaussianBlur stdDeviation="2"/>
<feComposite in2="hardAlpha" operator="out"/>
<feColorMatrix type="matrix" values="0 0 0 0 0 0 0 0 0 0 0 0 0 0 0 0 0 0 0.1 0"/>
<feBlend mode="normal" in2="BackgroundImageFix" result="effect1_dropShadow_6975_13234"/>
<feBlend mode="normal" in="SourceGraphic" in2="effect1_dropShadow_6975_13234" result="shape"/>
</filter>
</defs>
</svg>
