<svg width="191" height="46" viewBox="0 0 191 46" fill="none" xmlns="http://www.w3.org/2000/svg">
<path d="M4.0765 34V32.8903H6.43181V3.40361H4.86915C4.08405 3.40361 3.48767 3.59234 3.08002 3.96979C2.67237 4.34724 2.39306 4.93607 2.24207 5.73628C2.10619 6.53648 2.03825 7.5707 2.03825 8.83894H0.928536V2.2939H15.3322V8.83894H14.2225C14.2225 7.5707 14.147 6.53648 13.996 5.73628C13.845 4.93607 13.5657 4.34724 13.158 3.96979C12.7655 3.59234 12.1767 3.40361 11.3915 3.40361H9.82889V32.8903H12.2748V34H4.0765ZM15.2957 34V32.8903H17.4925V11.3981H15.2957V10.2884H20.731L20.8443 12.7569C20.8745 12.5606 21.0179 12.2511 21.2746 11.8284C21.5463 11.4056 21.9163 11.0131 22.3843 10.6507C22.8523 10.2884 23.411 10.1072 24.0602 10.1072C24.8151 10.1072 25.4341 10.3714 25.9173 10.8998C26.4004 11.4283 26.7628 12.1379 27.0043 13.0287C27.2459 13.9195 27.3667 14.9084 27.3667 15.9955C27.3667 16.7353 27.2383 17.309 26.9817 17.7167C26.725 18.1092 26.3551 18.3055 25.872 18.3055C25.419 18.3055 25.0642 18.1319 24.8075 17.7846C24.566 17.4222 24.4452 16.9391 24.4452 16.3352C24.4452 15.9577 24.5056 15.6331 24.6264 15.3613C24.7623 15.0896 24.8906 14.8103 25.0114 14.5234C25.1322 14.2365 25.1925 13.8968 25.1925 13.5043C25.1925 12.7645 25.0567 12.2285 24.7849 11.8963C24.5282 11.5491 24.181 11.3754 23.7431 11.3754C23.1845 11.3754 22.6863 11.6396 22.2484 12.1681C21.8257 12.6814 21.4935 13.3457 21.2519 14.161C21.0104 14.9612 20.8896 15.7841 20.8896 16.6296V32.8903H23.1543V34H15.2957ZM34.6962 34.4756C33.6092 34.4756 32.6731 34.1434 31.888 33.4791C31.1029 32.8148 30.4612 31.9089 29.963 30.7614C29.4647 29.5989 29.0948 28.2778 28.8533 26.7982C28.6268 25.3035 28.5136 23.7333 28.5136 22.0876C28.5136 20.0644 28.6796 18.2979 29.0118 16.7881C29.3439 15.2783 29.7969 14.0327 30.3706 13.0513C30.9595 12.0548 31.6162 11.315 32.3409 10.8319C33.0656 10.3488 33.8281 10.1072 34.6283 10.1072C35.5493 10.1072 36.357 10.3865 37.0516 10.9451C37.7461 11.5038 38.3198 12.2662 38.7727 13.2325C39.2408 14.1837 39.588 15.2708 39.8145 16.4937C40.041 17.7016 40.1542 18.9472 40.1542 20.2305C40.1542 20.5325 40.1542 20.8269 40.1542 21.1137C40.1542 21.3855 40.1391 21.6648 40.1089 21.9517H31.6389V20.842H36.8024C36.8024 18.8339 36.7345 17.1127 36.5986 15.6784C36.4778 14.229 36.2589 13.1268 35.9418 12.3719C35.6248 11.6019 35.1869 11.2169 34.6283 11.2169C34.0848 11.2169 33.6092 11.5944 33.2015 12.3493C32.809 13.0891 32.4995 14.2214 32.273 15.7463C32.0616 17.2713 31.9559 19.2038 31.9559 21.544C31.9559 23.1746 31.9937 24.6995 32.0692 26.1188C32.1447 27.5229 32.2881 28.7609 32.4995 29.8329C32.7259 30.9049 33.043 31.7428 33.4506 32.3468C33.8734 32.9507 34.4245 33.2526 35.1039 33.2526C36.1306 33.2526 36.9308 32.9658 37.5045 32.392C38.0933 31.8183 38.4934 31.2295 38.7048 30.6256L39.6786 31.1917C39.3767 32.0523 38.7878 32.8148 37.9121 33.4791C37.0516 34.1434 35.9796 34.4756 34.6962 34.4756ZM41.4869 34V32.8903H43.6836V11.3981H41.4869V10.2884H47.0354V13.074C47.1411 12.6663 47.3525 12.236 47.6696 11.7831C48.0017 11.315 48.432 10.9225 48.9604 10.6054C49.504 10.2733 50.1457 10.1072 50.8855 10.1072C51.5951 10.1072 52.2745 10.2808 52.9237 10.6281C53.588 10.9602 54.1316 11.6246 54.5543 12.621C54.9922 13.6175 55.2111 15.0896 55.2111 17.0372V32.8903H57.3626V34H49.9796V32.8903H51.814V17.4449C51.814 15.4368 51.6479 13.9874 51.3158 13.0966C50.9836 12.1907 50.4552 11.7378 49.7305 11.7378C49.3681 11.7378 49.0284 11.8888 48.7113 12.1907C48.3943 12.4776 48.115 12.8626 47.8734 13.3457C47.6318 13.8138 47.4431 14.3196 47.3072 14.8631C47.1713 15.3915 47.0958 15.9124 47.0807 16.4258V32.8903H48.9152V34H41.4869ZM64.2116 34.4529C63.2302 34.4529 62.3319 34.0604 61.5166 33.2753C60.7013 32.4902 60.0445 31.2068 59.5462 29.4253C59.0631 27.6437 58.8215 25.2582 58.8215 22.2687C58.8215 19.3548 59.0556 17.007 59.5236 15.2255C60.0067 13.4439 60.6409 12.153 61.426 11.3528C62.2262 10.5375 63.0868 10.1298 64.0078 10.1298C64.7476 10.1298 65.3364 10.3035 65.7742 10.6507C66.2121 10.998 66.5442 11.3905 66.7707 11.8284C66.9972 12.2662 67.1406 12.6361 67.201 12.9381V1.16154H64.8231V0.029175H70.666V32.8903H73.044V34H67.5181L67.3369 31.1465C67.3067 31.539 67.1708 31.9995 66.9292 32.5279C66.6877 33.0413 66.348 33.4942 65.9101 33.8868C65.4723 34.2642 64.9061 34.4529 64.2116 34.4529ZM64.7551 32.845C65.2533 32.845 65.6685 32.5657 66.0007 32.007C66.348 31.4333 66.6197 30.7162 66.816 29.8556C67.0274 28.9799 67.1557 28.0966 67.201 27.2058V16.4711C67.1406 15.7463 66.9972 15.0367 66.7707 14.3422C66.5442 13.6326 66.2498 13.0513 65.8875 12.5984C65.5402 12.1454 65.1401 11.919 64.6872 11.919C64.2342 11.919 63.8492 12.2058 63.5322 12.7796C63.2302 13.3533 62.9886 14.1308 62.8074 15.1122C62.6263 16.0785 62.4979 17.1882 62.4224 18.4414C62.347 19.6945 62.3092 21.0005 62.3092 22.3593C62.3092 23.9295 62.347 25.3563 62.4224 26.6397C62.513 27.923 62.6489 29.0327 62.8301 29.9688C63.0113 30.8898 63.2604 31.5994 63.5775 32.0976C63.9096 32.5959 64.3022 32.845 64.7551 32.845ZM76.0002 45.3689C75.4113 45.3689 74.9055 45.1349 74.4828 44.6668C74.0751 44.1988 73.7656 43.5571 73.5543 42.7418C73.3429 41.9416 73.2372 41.0357 73.2372 40.0242C73.2372 39.2994 73.3655 38.7408 73.6222 38.3483C73.8789 37.9708 74.2337 37.7821 74.6866 37.7821C75.1547 37.7821 75.5019 37.9633 75.7284 38.3256C75.97 38.688 76.0907 39.1485 76.0907 39.7071C76.0907 40.1449 76.0153 40.5224 75.8643 40.8395C75.7284 41.1565 75.585 41.466 75.434 41.768C75.2981 42.07 75.2302 42.4172 75.2302 42.8098C75.2302 43.2778 75.2981 43.6628 75.434 43.9648C75.585 44.2667 75.8039 44.4177 76.0907 44.4177C76.3172 44.4177 76.4984 44.2894 76.6343 44.0327C76.7853 43.7911 76.9136 43.4665 77.0193 43.0589C77.1401 42.6512 77.2458 42.2058 77.3363 41.7227L78.8764 33.9321L74.0072 11.3981H72.1275V10.2884H79.3067V11.3981H77.5855L80.5296 26.1867L83.3152 11.3981H81.6167V10.2884H86.282V11.3981H84.5382L79.9861 34.1585L78.3781 42.0398C78.2573 42.689 78.0988 43.2627 77.9025 43.761C77.7062 44.2592 77.4571 44.6517 77.1552 44.9386C76.8532 45.2255 76.4682 45.3689 76.0002 45.3689ZM95.8596 34V32.8903H98.215V3.40361H96.6523C95.8672 3.40361 95.2708 3.59234 94.8632 3.96979C94.4555 4.34724 94.1762 4.93607 94.0252 5.73628C93.8893 6.53648 93.8214 7.5707 93.8214 8.83894H92.7117V2.2939H107.115V8.83894H106.006C106.006 7.5707 105.93 6.53648 105.779 5.73628C105.628 4.93607 105.349 4.34724 104.941 3.96979C104.549 3.59234 103.96 3.40361 103.175 3.40361H101.612V32.8903H104.058V34H95.8596ZM108.102 34V32.8903H110.276V1.13889H108.102V0.029175H113.673V13.006C113.718 12.7041 113.899 12.3266 114.216 11.8737C114.548 11.4056 115.001 10.9904 115.575 10.6281C116.149 10.2506 116.828 10.0619 117.613 10.0619C118.383 10.0619 119.108 10.2657 119.787 10.6734C120.467 11.0659 121.018 11.7831 121.441 12.8249C121.879 13.8666 122.098 15.3689 122.098 17.3316V32.8903H124.249V34H116.934V32.8903H118.7V17.7619C118.7 15.6482 118.534 14.1308 118.202 13.2099C117.87 12.2738 117.326 11.8057 116.572 11.8057C116.073 11.8057 115.605 12.0322 115.167 12.4851C114.73 12.923 114.375 13.4967 114.103 14.2063C113.846 14.9159 113.703 15.6633 113.673 16.4484V32.8903H115.462V34H108.102ZM124.462 34V32.8903H126.659V11.3981H124.462V10.2884H129.898L130.011 12.7569C130.041 12.5606 130.185 12.2511 130.441 11.8284C130.713 11.4056 131.083 11.0131 131.551 10.6507C132.019 10.2884 132.578 10.1072 133.227 10.1072C133.982 10.1072 134.601 10.3714 135.084 10.8998C135.567 11.4283 135.929 12.1379 136.171 13.0287C136.413 13.9195 136.533 14.9084 136.533 15.9955C136.533 16.7353 136.405 17.309 136.148 17.7167C135.892 18.1092 135.522 18.3055 135.039 18.3055C134.586 18.3055 134.231 18.1319 133.974 17.7846C133.733 17.4222 133.612 16.9391 133.612 16.3352C133.612 15.9577 133.672 15.6331 133.793 15.3613C133.929 15.0896 134.057 14.8103 134.178 14.5234C134.299 14.2365 134.359 13.8968 134.359 13.5043C134.359 12.7645 134.223 12.2285 133.952 11.8963C133.695 11.5491 133.348 11.3754 132.91 11.3754C132.351 11.3754 131.853 11.6396 131.415 12.1681C130.992 12.6814 130.66 13.3457 130.419 14.161C130.177 14.9612 130.056 15.7841 130.056 16.6296V32.8903H132.321V34H124.462ZM143.863 34.4756C142.776 34.4756 141.84 34.1434 141.055 33.4791C140.27 32.8148 139.628 31.9089 139.13 30.7614C138.631 29.5989 138.261 28.2778 138.02 26.7982C137.793 25.3035 137.68 23.7333 137.68 22.0876C137.68 20.0644 137.846 18.2979 138.178 16.7881C138.511 15.2783 138.964 14.0327 139.537 13.0513C140.126 12.0548 140.783 11.315 141.508 10.8319C142.232 10.3488 142.995 10.1072 143.795 10.1072C144.716 10.1072 145.524 10.3865 146.218 10.9451C146.913 11.5038 147.486 12.2662 147.939 13.2325C148.407 14.1837 148.755 15.2708 148.981 16.4937C149.208 17.7016 149.321 18.9472 149.321 20.2305C149.321 20.5325 149.321 20.8269 149.321 21.1137C149.321 21.3855 149.306 21.6648 149.276 21.9517H140.806V20.842H145.969C145.969 18.8339 145.901 17.1127 145.765 15.6784C145.644 14.229 145.426 13.1268 145.108 12.3719C144.791 11.6019 144.354 11.2169 143.795 11.2169C143.251 11.2169 142.776 11.5944 142.368 12.3493C141.976 13.0891 141.666 14.2214 141.44 15.7463C141.228 17.2713 141.123 19.2038 141.123 21.544C141.123 23.1746 141.16 24.6995 141.236 26.1188C141.311 27.5229 141.455 28.7609 141.666 29.8329C141.893 30.9049 142.21 31.7428 142.617 32.3468C143.04 32.9507 143.591 33.2526 144.271 33.2526C145.297 33.2526 146.097 32.9658 146.671 32.392C147.26 31.8183 147.66 31.2295 147.871 30.6256L148.845 31.1917C148.543 32.0523 147.954 32.8148 147.079 33.4791C146.218 34.1434 145.146 34.4756 143.863 34.4756ZM155.817 34.4756C154.926 34.4756 154.126 34.2642 153.416 33.8415C152.707 33.4187 152.141 32.7846 151.718 31.9391C151.31 31.0785 151.106 29.999 151.106 28.7006C151.106 27.2662 151.378 26.0886 151.922 25.1676C152.465 24.2315 153.137 23.4464 153.937 22.8123C154.738 22.1631 155.538 21.5818 156.338 21.0684C157.138 20.5551 157.81 20.0191 158.354 19.4605C158.897 18.9019 159.169 18.2224 159.169 17.4222C159.169 16.2748 159.086 15.2406 158.92 14.3196C158.769 13.3986 158.497 12.6739 158.104 12.1454C157.727 11.6019 157.199 11.3301 156.519 11.3301C155.779 11.3301 155.145 11.5868 154.617 12.1001C154.103 12.6135 153.847 13.2099 153.847 13.8893C153.847 14.2365 153.9 14.5309 154.005 14.7725C154.126 15.0141 154.232 15.2632 154.322 15.5199C154.428 15.7614 154.481 16.071 154.481 16.4484C154.481 16.9919 154.353 17.4373 154.096 17.7846C153.854 18.1319 153.492 18.3055 153.009 18.3055C152.526 18.3055 152.156 18.1017 151.899 17.694C151.658 17.2864 151.537 16.7202 151.537 15.9955C151.537 14.9084 151.771 13.9195 152.239 13.0287C152.707 12.1379 153.356 11.4283 154.186 10.8998C155.017 10.3714 155.976 10.1072 157.063 10.1072C158.15 10.1072 159.101 10.3714 159.916 10.8998C160.747 11.4132 161.396 12.2285 161.864 13.3457C162.332 14.463 162.566 15.92 162.566 17.7167V31.305C162.566 31.9391 162.641 32.3769 162.792 32.6185C162.943 32.845 163.155 32.9582 163.427 32.9582C163.653 32.9582 163.849 32.9054 164.015 32.7997C164.197 32.694 164.332 32.5959 164.423 32.5053L165.012 33.4338C164.831 33.6452 164.506 33.8415 164.038 34.0226C163.57 34.2038 163.019 34.2944 162.385 34.2944C161.796 34.2944 161.283 34.1963 160.845 34C160.422 33.8188 160.09 33.5546 159.848 33.2073C159.607 32.8601 159.471 32.4373 159.441 31.9391C159.365 32.2411 159.192 32.5883 158.92 32.9809C158.648 33.3734 158.255 33.7207 157.742 34.0226C157.244 34.3246 156.602 34.4756 155.817 34.4756ZM156.791 32.8676C157.274 32.8676 157.689 32.6865 158.037 32.3241C158.399 31.9467 158.678 31.5013 158.874 30.9879C159.071 30.4595 159.169 29.9763 159.169 29.5385V19.8681C159.124 20.2909 158.867 20.7287 158.399 21.1817C157.946 21.6346 157.425 22.1631 156.836 22.767C156.262 23.3558 155.749 24.0956 155.296 24.9864C154.858 25.8772 154.639 26.9718 154.639 28.2703C154.639 29.7499 154.806 30.8898 155.138 31.69C155.485 32.4751 156.036 32.8676 156.791 32.8676ZM171.432 34.4529C170.451 34.4529 169.552 34.0604 168.737 33.2753C167.922 32.4902 167.265 31.2068 166.767 29.4253C166.284 27.6437 166.042 25.2582 166.042 22.2687C166.042 19.3548 166.276 17.007 166.744 15.2255C167.227 13.4439 167.861 12.153 168.646 11.3528C169.447 10.5375 170.307 10.1298 171.228 10.1298C171.968 10.1298 172.557 10.3035 172.995 10.6507C173.432 10.998 173.765 11.3905 173.991 11.8284C174.218 12.2662 174.361 12.6361 174.421 12.9381V1.16154H172.043V0.029175H177.886V32.8903H180.264V34H174.738L174.557 31.1465C174.527 31.539 174.391 31.9995 174.15 32.5279C173.908 33.0413 173.568 33.4942 173.131 33.8868C172.693 34.2642 172.127 34.4529 171.432 34.4529ZM171.976 32.845C172.474 32.845 172.889 32.5657 173.221 32.007C173.568 31.4333 173.84 30.7162 174.036 29.8556C174.248 28.9799 174.376 28.0966 174.421 27.2058V16.4711C174.361 15.7463 174.218 15.0367 173.991 14.3422C173.765 13.6326 173.47 13.0513 173.108 12.5984C172.761 12.1454 172.361 11.919 171.908 11.919C171.455 11.919 171.07 12.2058 170.753 12.7796C170.451 13.3533 170.209 14.1308 170.028 15.1122C169.847 16.0785 169.718 17.1882 169.643 18.4414C169.567 19.6945 169.53 21.0005 169.53 22.3593C169.53 23.9295 169.567 25.3563 169.643 26.6397C169.733 27.923 169.869 29.0327 170.051 29.9688C170.232 30.8898 170.481 31.5994 170.798 32.0976C171.13 32.5959 171.523 32.845 171.976 32.845ZM186.033 34.4982C185.294 34.4982 184.697 34.3926 184.244 34.1812C183.806 33.9849 183.452 33.7886 183.18 33.5924C182.908 33.3961 182.659 33.2979 182.433 33.2979C182.266 33.2979 182.146 33.3583 182.07 33.4791C182.01 33.5999 181.972 33.7735 181.957 34H181.028V27.2738H182.138C182.214 28.1646 182.342 28.9874 182.523 29.7423C182.719 30.4821 182.976 31.1238 183.293 31.6673C183.61 32.2109 183.988 32.6336 184.425 32.9356C184.878 33.2375 185.407 33.3885 186.011 33.3885C186.615 33.3885 187.09 33.23 187.438 32.9129C187.8 32.5808 188.064 32.1656 188.23 31.6673C188.396 31.154 188.479 30.6256 188.479 30.082C188.479 29.3422 188.351 28.6175 188.094 27.9079C187.838 27.1832 187.453 26.4509 186.939 25.7111C186.441 24.9713 185.822 24.2013 185.082 23.4011C183.98 22.2083 183.052 20.9779 182.297 19.7096C181.542 18.4414 181.164 16.9466 181.164 15.2255C181.164 14.078 181.383 13.1268 181.821 12.3719C182.274 11.617 182.855 11.0508 183.565 10.6734C184.29 10.2959 185.06 10.1072 185.875 10.1072C186.464 10.1072 186.947 10.1827 187.324 10.3337C187.702 10.4695 188.004 10.613 188.23 10.764C188.472 10.9149 188.668 10.9904 188.819 10.9904C188.955 10.9904 189.046 10.93 189.091 10.8093C189.151 10.6885 189.189 10.5148 189.204 10.2884H190.178V16.8108H189.068C189.008 15.92 188.902 15.1273 188.751 14.4328C188.6 13.7383 188.396 13.157 188.14 12.689C187.883 12.2058 187.566 11.8435 187.188 11.6019C186.826 11.3452 186.396 11.2169 185.898 11.2169C185.158 11.2169 184.569 11.4887 184.131 12.0322C183.693 12.5757 183.474 13.3155 183.474 14.2516C183.474 15.2632 183.761 16.237 184.335 17.1731C184.924 18.0941 185.731 19.1057 186.758 20.2078C187.604 21.1288 188.336 22.0272 188.955 22.9029C189.574 23.7786 190.05 24.6844 190.382 25.6205C190.729 26.5566 190.903 27.5682 190.903 28.6553C190.903 29.8631 190.699 30.9049 190.291 31.7806C189.899 32.6412 189.34 33.313 188.615 33.7962C187.891 34.2642 187.03 34.4982 186.033 34.4982Z" fill="#1E1E24"/>
</svg>
